<mxfile host="app.diagrams.net" modified="2024-02-16T19:42:11.030Z" agent="Mozilla/5.0 (Macintosh; Intel Mac OS X 10_15_7) AppleWebKit/537.36 (KHTML, like Gecko) Chrome/121.0.0.0 Safari/537.36" etag="Pd6r_LXU1_0Zi3K82Tc6" version="23.1.4" type="github">
  <diagram name="Page-1" id="Ql-qeSXlI5SADEAWseUU">
    <mxGraphModel dx="934" dy="635" grid="1" gridSize="10" guides="1" tooltips="1" connect="1" arrows="1" fold="1" page="1" pageScale="1" pageWidth="827" pageHeight="1169" math="0" shadow="0">
      <root>
        <mxCell id="0" />
        <mxCell id="1" parent="0" />
        <mxCell id="_yVO52nyZsYAcLyqT8BD-3" value="" style="edgeStyle=orthogonalEdgeStyle;rounded=0;orthogonalLoop=1;jettySize=auto;html=1;" edge="1" parent="1" source="_yVO52nyZsYAcLyqT8BD-1" target="_yVO52nyZsYAcLyqT8BD-2">
          <mxGeometry relative="1" as="geometry" />
        </mxCell>
        <mxCell id="_yVO52nyZsYAcLyqT8BD-5" value="" style="edgeStyle=orthogonalEdgeStyle;rounded=0;orthogonalLoop=1;jettySize=auto;html=1;" edge="1" parent="1" source="_yVO52nyZsYAcLyqT8BD-1" target="_yVO52nyZsYAcLyqT8BD-4">
          <mxGeometry relative="1" as="geometry" />
        </mxCell>
        <mxCell id="_yVO52nyZsYAcLyqT8BD-7" value="" style="edgeStyle=orthogonalEdgeStyle;rounded=0;orthogonalLoop=1;jettySize=auto;html=1;" edge="1" parent="1" source="_yVO52nyZsYAcLyqT8BD-1" target="_yVO52nyZsYAcLyqT8BD-6">
          <mxGeometry relative="1" as="geometry" />
        </mxCell>
        <mxCell id="_yVO52nyZsYAcLyqT8BD-9" value="" style="edgeStyle=orthogonalEdgeStyle;rounded=0;orthogonalLoop=1;jettySize=auto;html=1;" edge="1" parent="1" source="_yVO52nyZsYAcLyqT8BD-1" target="_yVO52nyZsYAcLyqT8BD-8">
          <mxGeometry relative="1" as="geometry" />
        </mxCell>
        <mxCell id="_yVO52nyZsYAcLyqT8BD-1" value="Landing page" style="rounded=0;whiteSpace=wrap;html=1;" vertex="1" parent="1">
          <mxGeometry x="350" y="250" width="120" height="60" as="geometry" />
        </mxCell>
        <mxCell id="_yVO52nyZsYAcLyqT8BD-2" value="Play" style="rounded=0;whiteSpace=wrap;html=1;" vertex="1" parent="1">
          <mxGeometry x="170" y="390" width="120" height="60" as="geometry" />
        </mxCell>
        <mxCell id="_yVO52nyZsYAcLyqT8BD-4" value="Leaderboard" style="rounded=0;whiteSpace=wrap;html=1;" vertex="1" parent="1">
          <mxGeometry x="350" y="390" width="120" height="60" as="geometry" />
        </mxCell>
        <mxCell id="_yVO52nyZsYAcLyqT8BD-6" value="Chat" style="rounded=0;whiteSpace=wrap;html=1;" vertex="1" parent="1">
          <mxGeometry x="530" y="390" width="120" height="60" as="geometry" />
        </mxCell>
        <mxCell id="_yVO52nyZsYAcLyqT8BD-8" value="Login" style="rounded=0;whiteSpace=wrap;html=1;" vertex="1" parent="1">
          <mxGeometry x="350" y="110" width="120" height="60" as="geometry" />
        </mxCell>
        <mxCell id="_yVO52nyZsYAcLyqT8BD-11" value="" style="edgeStyle=orthogonalEdgeStyle;rounded=0;orthogonalLoop=1;jettySize=auto;html=1;" edge="1" parent="1" source="_yVO52nyZsYAcLyqT8BD-10" target="_yVO52nyZsYAcLyqT8BD-2">
          <mxGeometry relative="1" as="geometry" />
        </mxCell>
        <mxCell id="_yVO52nyZsYAcLyqT8BD-10" value="&lt;h1&gt;Features&lt;/h1&gt;&lt;p&gt;- Play game&lt;/p&gt;&lt;p&gt;- Access game settings&lt;/p&gt;&lt;p&gt;&lt;br&gt;&lt;/p&gt;" style="text;html=1;spacing=5;spacingTop=-20;whiteSpace=wrap;overflow=hidden;rounded=0;" vertex="1" parent="1">
          <mxGeometry x="162.5" y="510" width="135" height="120" as="geometry" />
        </mxCell>
        <mxCell id="_yVO52nyZsYAcLyqT8BD-12" value="Actor" style="shape=umlActor;verticalLabelPosition=bottom;verticalAlign=top;html=1;outlineConnect=0;" vertex="1" parent="1">
          <mxGeometry x="140" y="80" width="60" height="120" as="geometry" />
        </mxCell>
        <mxCell id="_yVO52nyZsYAcLyqT8BD-13" style="edgeStyle=orthogonalEdgeStyle;rounded=0;orthogonalLoop=1;jettySize=auto;html=1;" edge="1" parent="1" source="_yVO52nyZsYAcLyqT8BD-12" target="_yVO52nyZsYAcLyqT8BD-12">
          <mxGeometry relative="1" as="geometry" />
        </mxCell>
        <mxCell id="_yVO52nyZsYAcLyqT8BD-16" value="" style="edgeStyle=orthogonalEdgeStyle;rounded=0;orthogonalLoop=1;jettySize=auto;html=1;" edge="1" parent="1" source="_yVO52nyZsYAcLyqT8BD-15" target="_yVO52nyZsYAcLyqT8BD-4">
          <mxGeometry relative="1" as="geometry" />
        </mxCell>
        <mxCell id="_yVO52nyZsYAcLyqT8BD-15" value="&lt;h1&gt;Features&lt;/h1&gt;&lt;p&gt;- Filter leaderboards&lt;/p&gt;&lt;p&gt;- Different leaderboard for different difficulties&lt;/p&gt;&lt;p&gt;&lt;br&gt;&lt;/p&gt;" style="text;html=1;spacing=5;spacingTop=-20;whiteSpace=wrap;overflow=hidden;rounded=0;" vertex="1" parent="1">
          <mxGeometry x="342.5" y="510" width="135" height="120" as="geometry" />
        </mxCell>
        <mxCell id="_yVO52nyZsYAcLyqT8BD-19" value="" style="edgeStyle=orthogonalEdgeStyle;rounded=0;orthogonalLoop=1;jettySize=auto;html=1;" edge="1" parent="1" source="_yVO52nyZsYAcLyqT8BD-17" target="_yVO52nyZsYAcLyqT8BD-18">
          <mxGeometry relative="1" as="geometry" />
        </mxCell>
        <mxCell id="_yVO52nyZsYAcLyqT8BD-17" value="Database" style="rounded=0;whiteSpace=wrap;html=1;" vertex="1" parent="1">
          <mxGeometry x="350" y="730" width="120" height="60" as="geometry" />
        </mxCell>
        <mxCell id="_yVO52nyZsYAcLyqT8BD-18" value="User data &amp;amp; stats" style="rounded=0;whiteSpace=wrap;html=1;" vertex="1" parent="1">
          <mxGeometry x="350" y="840" width="120" height="60" as="geometry" />
        </mxCell>
        <mxCell id="_yVO52nyZsYAcLyqT8BD-21" value="" style="edgeStyle=orthogonalEdgeStyle;rounded=0;orthogonalLoop=1;jettySize=auto;html=1;" edge="1" parent="1" source="_yVO52nyZsYAcLyqT8BD-20" target="_yVO52nyZsYAcLyqT8BD-18">
          <mxGeometry relative="1" as="geometry" />
        </mxCell>
        <mxCell id="_yVO52nyZsYAcLyqT8BD-20" value="&lt;h1&gt;Fields&lt;/h1&gt;&lt;p&gt;- displayName&lt;/p&gt;&lt;p&gt;- photoUrl&lt;/p&gt;&lt;p&gt;- scores [ { easy: &quot;&quot;, medium: &quot;&quot;, hard: &quot;&quot; } ]&lt;/p&gt;&lt;p&gt;&lt;br&gt;&lt;/p&gt;" style="text;html=1;spacing=5;spacingTop=-20;whiteSpace=wrap;overflow=hidden;rounded=0;" vertex="1" parent="1">
          <mxGeometry x="341.25" y="950" width="137.5" height="210" as="geometry" />
        </mxCell>
      </root>
    </mxGraphModel>
  </diagram>
</mxfile>
